<svg xmlns="http://www.w3.org/2000/svg" viewBox="0 0 100 100" width="100" height="100">
  <defs>
    <linearGradient id="g4" x1="0%" y1="0%" x2="100%" y2="100%">
      <stop offset="0%" stop-color="#ff5a00"/>
      <stop offset="100%" stop-color="#ffcc00"/>
    </linearGradient>
    <linearGradient id="bgGrad" x1="0%" y1="0%" x2="100%" y2="100%">
      <stop offset="0%" stop-color="#0f0800"/>
      <stop offset="100%" stop-color="#000000"/>
    </linearGradient>
    <filter id="glow">
      <feGaussianBlur stdDeviation="2" result="blur"/>
      <feMerge><feMergeNode in="blur"/><feMergeNode in="SourceGraphic"/></feMerge>
    </filter>
  </defs>
  <circle cx="50" cy="50" r="50" fill="url(#bgGrad)"/>
  <polygon points="50,6 88,28 88,72 50,94 12,72 12,28" fill="none" stroke="#ff5a00" stroke-width="1" opacity="0.25" filter="url(#glow)"/>
  <polygon points="50,10 85,30 85,70 50,90 15,70 15,30" fill="rgba(255,90,0,0.08)" stroke="url(#g4)" stroke-width="2.5" filter="url(#glow)"/>
  <polygon points="50,20 76,35 76,65 50,80 24,65 24,35" fill="none" stroke="rgba(255,90,0,0.12)" stroke-width="1"/>
  <text x="50" y="60" font-family="Georgia, serif" font-size="30" font-weight="bold" text-anchor="middle" fill="url(#g4)" filter="url(#glow)">SK</text>
  <circle cx="50" cy="10" r="2" fill="#ffcc00" opacity="0.8"/>
  <circle cx="85" cy="30" r="2" fill="#ffcc00" opacity="0.8"/>
  <circle cx="85" cy="70" r="2" fill="#ffcc00" opacity="0.8"/>
  <circle cx="50" cy="90" r="2" fill="#ffcc00" opacity="0.8"/>
  <circle cx="15" cy="70" r="2" fill="#ffcc00" opacity="0.8"/>
  <circle cx="15" cy="30" r="2" fill="#ffcc00" opacity="0.8"/>
</svg>
